# xmcd
#
# Track frame offsets:
#	150
#	14365
#	25085
#	39197
#	51525
#	64397
#	76727
#	89357
#	99760
#	116625
#	137802
#	151982
#
# Disc length: 2149 seconds
# Revision: 0
# Processed by: cddbd v1.5.2PL0 Copyright (c) Steve Scherf et al.
# Submitted via: dBpowerAMP V12.0
#
DISCID=9008630c
DTITLE=Johnny Winter - Livin' In The Blues
DYEAR=1998
DGENRE=Blues
TTITLE0=Ease My Pain
TTITLE1=That's What Love Does
TTITLE2=Five After Four A.M.
TTITLE3=Livin' In The Blues
TTITLE4=Leavin' Blues
TTITLE5=Parchman Farm
TTITLE6=Bad News
TTITLE7=32-20 Blues
TTITLE8=Kindhearted Woman Blues
TTITLE9=Going Down Slow
TTITLE10=Low Down Gal Of Mine
TTITLE11=Road Runner
EXTD=
EXTT0=
EXTT1=
EXTT2=
EXTT3=
EXTT4=
EXTT5=
EXTT6=
EXTT7=
EXTT8=
EXTT9=
EXTT10=
EXTT11=
PLAYORDER=
